<svg width="34" height="34" viewBox="0 0 34 34" fill="none" xmlns="http://www.w3.org/2000/svg">
<path d="M30.4584 5.66669H27.3889V7.55558H30.2222V28.3334H3.7778V7.55558H6.61114V5.66669H3.54169C3.32092 5.67038 3.10303 5.71752 2.90048 5.80543C2.69793 5.89334 2.51468 6.0203 2.36119 6.17904C2.20771 6.33778 2.08701 6.52521 2.00597 6.73061C1.92494 6.936 1.88516 7.15536 1.88891 7.37613V28.5128C1.88516 28.7336 1.92494 28.9529 2.00597 29.1583C2.08701 29.3637 2.20771 29.5511 2.36119 29.7099C2.51468 29.8686 2.69793 29.9956 2.90048 30.0835C3.10303 30.1714 3.32092 30.2186 3.54169 30.2222H30.4584C30.6791 30.2186 30.897 30.1714 31.0996 30.0835C31.3021 29.9956 31.4854 29.8686 31.6389 29.7099C31.7923 29.5511 31.913 29.3637 31.9941 29.1583C32.0751 28.9529 32.1149 28.7336 32.1111 28.5128V7.37613C32.1149 7.15536 32.0751 6.936 31.9941 6.73061C31.913 6.52521 31.7923 6.33778 31.6389 6.17904C31.4854 6.0203 31.3021 5.89334 31.0996 5.80543C30.897 5.71752 30.6791 5.67038 30.4584 5.66669Z" fill="white"/>
<path d="M7.55566 13.2222H9.44455V15.1111H7.55566V13.2222Z" fill="white"/>
<path d="M13.2222 13.2222H15.1111V15.1111H13.2222V13.2222Z" fill="white"/>
<path d="M18.8889 13.2222H20.7778V15.1111H18.8889V13.2222Z" fill="white"/>
<path d="M24.5557 13.2222H26.4446V15.1111H24.5557V13.2222Z" fill="white"/>
<path d="M7.55566 17.9445H9.44455V19.8333H7.55566V17.9445Z" fill="white"/>
<path d="M13.2222 17.9445H15.1111V19.8333H13.2222V17.9445Z" fill="white"/>
<path d="M18.8889 17.9445H20.7778V19.8333H18.8889V17.9445Z" fill="white"/>
<path d="M24.5557 17.9445H26.4446V19.8333H24.5557V17.9445Z" fill="white"/>
<path d="M7.55566 22.6667H9.44455V24.5556H7.55566V22.6667Z" fill="white"/>
<path d="M13.2222 22.6667H15.1111V24.5556H13.2222V22.6667Z" fill="white"/>
<path d="M18.8889 22.6667H20.7778V24.5556H18.8889V22.6667Z" fill="white"/>
<path d="M24.5557 22.6667H26.4446V24.5556H24.5557V22.6667Z" fill="white"/>
<path d="M9.44444 9.44447C9.69493 9.44447 9.93515 9.34497 10.1123 9.16785C10.2894 8.99073 10.3889 8.75051 10.3889 8.50003V2.83336C10.3889 2.58288 10.2894 2.34266 10.1123 2.16554C9.93515 1.98842 9.69493 1.88892 9.44444 1.88892C9.19396 1.88892 8.95374 1.98842 8.77662 2.16554C8.5995 2.34266 8.5 2.58288 8.5 2.83336V8.50003C8.5 8.75051 8.5995 8.99073 8.77662 9.16785C8.95374 9.34497 9.19396 9.44447 9.44444 9.44447Z" fill="white"/>
<path d="M24.5555 9.44447C24.806 9.44447 25.0462 9.34497 25.2234 9.16785C25.4005 8.99073 25.5 8.75051 25.5 8.50003V2.83336C25.5 2.58288 25.4005 2.34266 25.2234 2.16554C25.0462 1.98842 24.806 1.88892 24.5555 1.88892C24.305 1.88892 24.0648 1.98842 23.8877 2.16554C23.7106 2.34266 23.6111 2.58288 23.6111 2.83336V8.50003C23.6111 8.75051 23.7106 8.99073 23.8877 9.16785C24.0648 9.34497 24.305 9.44447 24.5555 9.44447Z" fill="white"/>
<path d="M12.2778 5.66669H21.7223V7.55558H12.2778V5.66669Z" fill="white"/>
</svg>
