<svg width="29" height="29" viewBox="0 0 29 29" fill="none" xmlns="http://www.w3.org/2000/svg">
<g clip-path="url(#clip0_528_27)">
<path d="M11.4792 9.66667H1.8125C0.813208 9.66667 0 8.85346 0 7.85417V1.8125C0 0.813208 0.813208 0 1.8125 0H11.4792C12.4785 0 13.2917 0.813208 13.2917 1.8125V7.85417C13.2917 8.85346 12.4785 9.66667 11.4792 9.66667ZM1.8125 1.20833C1.48021 1.20833 1.20833 1.479 1.20833 1.8125V7.85417C1.20833 8.18767 1.48021 8.45833 1.8125 8.45833H11.4792C11.8115 8.45833 12.0833 8.18767 12.0833 7.85417V1.8125C12.0833 1.479 11.8115 1.20833 11.4792 1.20833H1.8125Z" fill="#63686F"/>
<path d="M11.4792 29H1.8125C0.813208 29 0 28.1868 0 27.1875V13.8958C0 12.8965 0.813208 12.0833 1.8125 12.0833H11.4792C12.4785 12.0833 13.2917 12.8965 13.2917 13.8958V27.1875C13.2917 28.1868 12.4785 29 11.4792 29ZM1.8125 13.2916C1.48021 13.2916 1.20833 13.5623 1.20833 13.8958V27.1875C1.20833 27.521 1.48021 27.7917 1.8125 27.7917H11.4792C11.8115 27.7917 12.0833 27.521 12.0833 27.1875V13.8958C12.0833 13.5623 11.8115 13.2916 11.4792 13.2916H1.8125Z" fill="#63686F"/>
<path d="M27.1874 29H17.5208C16.5215 29 15.7083 28.1868 15.7083 27.1875V21.1458C15.7083 20.1465 16.5215 19.3333 17.5208 19.3333H27.1874C28.1867 19.3333 28.9999 20.1465 28.9999 21.1458V27.1875C28.9999 28.1868 28.1867 29 27.1874 29ZM17.5208 20.5416C17.1885 20.5416 16.9166 20.8123 16.9166 21.1458V27.1875C16.9166 27.521 17.1885 27.7916 17.5208 27.7916H27.1874C27.5197 27.7916 27.7916 27.521 27.7916 27.1875V21.1458C27.7916 20.8123 27.5197 20.5416 27.1874 20.5416H17.5208Z" fill="#63686F"/>
<path d="M27.1874 16.9167H17.5208C16.5215 16.9167 15.7083 16.1035 15.7083 15.1042V1.8125C15.7083 0.813208 16.5215 0 17.5208 0H27.1874C28.1867 0 28.9999 0.813208 28.9999 1.8125V15.1042C28.9999 16.1035 28.1867 16.9167 27.1874 16.9167ZM17.5208 1.20833C17.1885 1.20833 16.9166 1.479 16.9166 1.8125V15.1042C16.9166 15.4377 17.1885 15.7083 17.5208 15.7083H27.1874C27.5197 15.7083 27.7916 15.4377 27.7916 15.1042V1.8125C27.7916 1.479 27.5197 1.20833 27.1874 1.20833H17.5208Z" fill="#63686F"/>
</g>
<defs>
<clipPath id="clip0_528_27">
<rect width="29" height="29" fill="white"/>
</clipPath>
</defs>
</svg>
