<svg width="36" height="36" viewBox="0 0 36 36" fill="none" xmlns="http://www.w3.org/2000/svg">
<path d="M4.1897 4.19785V35.3821C4.1897 35.7134 4.45821 35.9819 4.78946 35.9819H27.578C27.909 35.9819 28.1776 35.7134 28.1776 35.3821V10.195C28.1776 10.1817 28.1711 10.1703 28.1699 10.1572C28.1669 10.1046 28.1566 10.0527 28.1393 10.0031C28.1326 9.9838 28.1279 9.96527 28.1195 9.9465C28.0904 9.88128 28.0498 9.82175 27.9995 9.77086L22.0026 3.77396C21.9517 3.72332 21.8919 3.68281 21.8262 3.65391C21.8081 3.64625 21.7899 3.63983 21.7711 3.63415C21.7209 3.61685 21.6688 3.60648 21.6157 3.60302C21.6056 3.60475 21.5937 3.59833 21.5811 3.59833H4.78946C4.45821 3.59833 4.1897 3.86659 4.1897 4.19785ZM26.1303 9.59523H22.1807V5.64563L26.1303 9.59523ZM5.38898 4.79761H20.9814V10.195C20.9814 10.526 21.2499 10.7945 21.5809 10.7945H26.9783V34.7826H5.38898V4.79761Z" fill="#63686F"/>
<path d="M29.3769 31.1843V32.3836H31.1759C31.5072 32.3836 31.7757 32.1153 31.7757 31.7841V0.599764C31.7757 0.268511 31.5072 0 31.1759 0H8.38736C8.05611 0 7.7876 0.268511 7.7876 0.599764V2.39881H8.98713V1.19928H30.5762V31.1843H29.3769Z" fill="#63686F"/>
<path d="M8.9873 11.9941H23.3799V13.1934H8.9873V11.9941Z" fill="#63686F"/>
<path d="M8.9873 8.39569H13.7849V9.59521H8.9873V8.39569Z" fill="#63686F"/>
<path d="M8.9873 15.5922H18.5825V16.7917H8.9873V15.5922Z" fill="#63686F"/>
<path d="M19.7817 15.5922H23.3798V16.7917H19.7817V15.5922Z" fill="#63686F"/>
<path d="M8.9873 19.1902H23.3799V20.3898H8.9873V19.1902Z" fill="#63686F"/>
<path d="M8.9873 26.3867H23.3799V27.5862H8.9873V26.3867Z" fill="#63686F"/>
<path d="M14.3845 22.7886H23.38V23.9879H14.3845V22.7886Z" fill="#63686F"/>
<path d="M8.9873 22.7886H13.1852V23.9879H8.9873V22.7886Z" fill="#63686F"/>
<path d="M8.9873 29.985H11.3861V31.1843H8.9873V29.985Z" fill="#63686F"/>
<path d="M12.5854 29.985H23.38V31.1843H12.5854V29.985Z" fill="#63686F"/>
</svg>
